<svg xmlns="http://www.w3.org/2000/svg" version="1.1" viewBox="0 0 200 200" width="30" height="30"><rect id="Hintergrund" width="200" fill="#e30613" height="200"/><g id="Wortmarke" transform="translate(0, 53.7275), scale(1)"><path id="G" d="M169.14,21.87h20.77V33.29a6.33,6.33,0,0,1-4.49,6c-3,.84-6,.65-9.34.65H162.2c-4.6.06-8.52.4-10.9-1.25a6.51,6.51,0,0,1-2.93-5.39V16.69c0-2.31,1.27-4,3-5.37,2.06-1.7,6.34-1.27,10.87-1.27h13.88c5.47,0,9.08,0,11.1,1.45C190.26,13.7,190,18,190,18H176.05c-.44-2.16-1.67-2.72-4.49-2.72H167.1c-3.06,0-4.2,1-4.18,2.82V31.36c0,1.59.23,2.29,1.47,2.89,1,.49,2.63.41,4.53.41h3.53c3.34,0,3.63-1.82,3.63-3.81V27.31h-6.94V21.87" fill="#ffed00"/><path id="R" d="M114.39,15.33h6.29c2,0,3.52-.16,4.88.47A2.48,2.48,0,0,1,127,18.59a2.58,2.58,0,0,1-1.43,2.82c-1.45.63-2.5.46-4.88.46h-6.29V15.33ZM99.84,39.93V10.05h27.49c3.17,0,6.76-.26,9.34.94,2.92,1.37,4.51,2.94,4.51,6.22l0,.8c0,2.56-1.07,3.89-3.21,5.26s-4.71,1.57-9.69,1.57h6a11,11,0,0,1,4.87,1,4.11,4.11,0,0,1,2.07,3.32V39.93H126.62V30.47c0-.91.07-2.39-1.22-2.8s-2.29-.31-4.54-.36h-6.47V39.93H99.84" fill-rule="evenodd" fill="#ffed00"/><path id="L" d="M59.76,39.93V10.05H74.31V32h19v8H59.76" fill="#ffed00"/><path id="D" d="M37,22.27v5.4c0,.89.13,3.14-1.28,3.74-1.81.76-3.13.51-5,.54H24.54V18h6.24c1.83,0,3.14-.22,4.95.55C37.14,19.13,37,21.38,37,22.27Zm.7,17.65c3.78,0,7.91.32,10.62-1s3.21-4.78,3.21-6.58V17.67c0-1.81-.48-5.27-3.21-6.58s-6.83-1-10.62-1H10V39.93H37.71" fill-rule="evenodd" fill="#ffed00"/></g><rect x="10" y="46.6" width="180" height="1.8" fill="#ffed00" transform="translate(0, 53.7275), scale(1)"/><path fill="#ffed00" d="M12.388940092166,56.045852534562l7.4322580645161,0l8.9917050691244,18.879262672811l0-18.879262672811l4.7778801843318,0l0,23.988940092166l-7.0672811059908,0l-9.2903225806452-19.907834101382l0,19.907834101382l-4.8442396313364,0l0-23.988940092166z M45.933640552996,77.214516129032q3.6165898617512,0,3.6165898617512-5.2755760368664q0-2.6543778801843-0.49769585253456-3.6995391705069t-1.2276497695853-1.5594470046083t-2.0239631336406-0.51428571428571t-2.0239631336406,0.68018433179723t-1.1281105990783,1.7751152073733t-0.39815668202765,3.5834101382488q0,5.0101382488479,3.6829493087558,5.0101382488479z M37.870967741936,75.655069124424q-0.66359447004608-1.6589861751152-0.66359447004608-3.5170506912442q0-3.8820276497696,1.858064516129-6.3041474654378q2.2562211981567-2.9529953917051,6.6857142857143-2.9529953917051t6.6193548387097,2.4884792626728t2.1898617511521,6.3041474654378t-2.2230414746544,6.3870967741935t-6.3041474654378,2.5714285714286q-6.1714285714286,0-8.1622119815668-4.9769585253456z M58.24331797235,67.39331797235q0-1.6258064516129-0.23225806451613-4.1806451612903l4.6119815668203,0l0.099539170506912,3.2184331797235q0.63041474654378-1.4599078341014,1.4599078341014-2.1235023041475q1.4267281105991-1.1281105990783,3.7161290322581-1.1281105990783l0.53087557603687,0l0,4.4129032258065q-0.59723502304147-0.066359447004608-1.1612903225806-0.066359447004608q-2.3557603686636,0.033179723502304-3.3511520737327,1.1944700460829q-0.53087557603687,0.63041474654378-0.64700460829493,1.4433179723502t-0.11612903225806,1.6092165898618l0,8.2617511520737l-4.910599078341,0l0-12.641474654378z M74.435023041475,72.055069124424q0,2.1400921658986,0.81290322580645,3.6331797235023t2.5714285714286,1.4930875576037q1.0617511520737,0,1.8912442396313-0.56405529953917q2.0239631336406-1.3603686635945,2.0239631336406-5.2755760368664q0-2.4884792626728-0.97880184331797-3.7824884792627t-2.4387096774194-1.2940092165899t-2.1898617511521,0.64700460829493t-1.2110599078341,1.8248847926267t-0.48110599078341,3.3179723502304z M81.56866359447,65.336175115207l0-9.2571428571429l4.9437788018433,0l0,21.235023041475q0,1.7917050691244,0.13271889400922,2.7207373271889l-4.9769585253456,0l-0.13271889400922-2.4221198156682q-0.26543778801843,0.46451612903226-0.59723502304147,0.92903225806452t-1.3769585253456,1.1447004608295t-2.9695852534562,0.68018433179723q-3.384331797235,0-5.2589861751152-2.1898617511521t-1.8746543778802-6.2046082949309t2.0239631336406-6.4700460829493t5.2423963133641-2.4552995391705t4.8442396313364,2.289400921659z M90.06267281106,69.384101382488l8.2285714285714,0l0,3.7493087557604l-8.2285714285714,0l0-3.7493087557604z M106.71889400922,66.53064516129l4.147465437788,0q1.7917050691244,0,2.621198156682-0.66359447004608q1.3271889400922-1.0617511520737,1.3271889400922-2.7870967741935q0-1.2276497695853-0.44792626728111-1.8414746543779t-0.92903225806452-0.94562211981567t-1.2608294930876-0.39815668202765t-2.0073732718894-0.066359447004608l-3.4506912442396,0l0,6.7023041474654z M101.64239631336,56.045852534562l9.1907834101382,0q2.8202764976959,0,3.815668202765,0.16589861751152q2.1566820276498,0.36497695852535,3.384331797235,1.3935483870968q2.1566820276498,1.8248847926267,2.1566820276498,4.694930875576t-2.0571428571429,4.4626728110599q-0.8294930875576,0.66359447004608-1.6755760368664,0.96221198156682t-1.2774193548387,0.43133640552995q2.4221198156682,0.23225806451613,3.3511520737327,1.7253456221198q0.43133640552995,0.69677419354839,0.64700460829493,1.858064516129t0.59723502304147,4.03133640553t0.68018433179723,3.4175115207373t0.49769585253456,0.84608294930876l-5.673732718894,0q-0.16589861751152-0.7963133640553-0.63041474654378-4.2801843317972t-0.66359447004608-4.0147465437788q-0.29861751152074-0.89585253456221-1.1281105990783-1.2276497695853q-0.39815668202765-0.16589861751152-1.4599078341014-0.16589861751152l-4.5124423963134,0l0,9.6884792626728l-5.2423963133641,0l0-23.988940092166z M128.94930875576,65.568433179723q1.6921658986175-2.5216589861751,4.8442396313364-2.5216589861751q1.6589861751152,0,2.9198156682028,0.66359447004608t1.8248847926267,1.4267281105991q1.2276497695853,1.6589861751152,1.2276497695853,4.7115207373272l0,10.186175115207l-4.8774193548387,0l0-10.020276497696q0-2.3225806451613-1.1612903225806-3.2184331797235q-0.56405529953917-0.43133640552995-1.3271889400922-0.43133640552995q-1.4930875576037,0-2.4552995391705,0.81290322580645t-0.96221198156682,2.6046082949309l0.033179723502304,10.252534562212l-4.9437788018433,0l0-23.955760368664l4.8774193548387,0l0,9.489400921659z M154.39815668203,69.815437788018q0-2.1898617511521-1.2608294930876-3.2516129032258q-0.59723502304147-0.49769585253456-1.526267281106-0.49769585253456q-1.6589861751152,0-2.4387096774194,1.1447004608295t-0.84608294930876,2.6046082949309l6.0718894009217,0z M148.16036866359,72.901152073733q0,1.6921658986175,0.3815668202765,2.5382488479263t1.0617511520737,1.3935483870968t1.7917050691244,0.54746543778802t1.9244239631336-0.46451612903226t1.1778801843318-1.858064516129l4.4792626728111,0q-0.13271889400922,1.094930875576-0.3815668202765,1.8746543778802t-1.2110599078341,1.7751152073733q-1.8912442396313,1.9576036866359-5.8728110599078,1.9576036866359q-2.4552995391705,0-4.4460829493088-0.99539170506912q-0.7963133640553-0.39815668202765-1.4599078341014-1.094930875576q-2.1566820276498-2.2230414746544-2.1566820276498-6.5364055299539q0-5.5410138248848,3.4838709677419-7.9299539170507q2.0239631336406-1.3935483870968,4.9935483870968-1.3935483870968t5.2423963133641,2.2230414746544t2.2728110599078,6.7354838709677q0,0.69677419354839-0.033179723502304,1.2276497695853l-11.247926267281,0z M162.6599078341,63.245852534562l4.910599078341,0l0,16.788940092166l-4.910599078341,0l0-16.788940092166z M162.49400921659,56.079032258064l5.2423963133641,0l0,4.2801843317972l-5.2423963133641,0l0-4.2801843317972z M171.95023041475,65.933410138249q0-1.4267281105991-0.099539170506912-2.7207373271889l4.7115207373272,0l0.13271889400922,2.5216589861751q0.96221198156682-1.7253456221198,3.1188940092166-2.5548387096774q0.96221198156682-0.36497695852535,2.2562211981567-0.36497695852535q2.1566820276498,0,3.7493087557604,1.2110599078341t1.8248847926267,3.6663594470046q0.066359447004608,0.92903225806452,0.066359447004608,3.2847926267281l0,9.058064516129l-5.0101382488479,0l0-10.418433179724q0-1.2940092165899-0.26543778801843-1.858064516129q-0.69677419354839-1.3935483870968-2.3889400921659-1.3935483870968q-2.3225806451613,0-2.9529953917051,2.2562211981567q-0.19907834101382,0.63041474654378-0.19907834101382,1.5926267281106l0,9.821198156682l-4.9437788018433,0l0-13.769585253456l0-0.33179723502304z" transform="translate(0, 53.7275), scale(1)"/></svg>